<svg xmlns="http://www.w3.org/2000/svg" xmlns:xlink="http://www.w3.org/1999/xlink" style="margin: auto; background: #fff; display: block; z-index: 1; position: relative; shape-rendering: auto;" width="1278" height="1311" preserveAspectRatio="xMidYMid" viewBox="0 0 1278 1311">
<g transform="translate(639,655.5) scale(1,1) translate(-639,-655.5)"><path id="path0" d="M 850.3232430470707 980.9011416574336
c 0 27.32018184734967 -6.6847253456281095 7.847286275302564 -14.532011620930675 7.847286275302564
S 821.2592198052093 1008.2213235047833 821.2592198052093 980.9011416574336
s 6.6847253456281095 -7.847286275302564 14.532011620930675 -7.847286275302564
S 850.3232430470707 953.580959810084 850.3232430470707 980.9011416574336
z" fill="none" stroke="none"></path>
<circle cx="0" cy="0" r="7.134148231384681" fill="#9df871">
  <animateMotion begin="-9.466390114796985s" dur="10s" repeatCount="indefinite">
    <mpath xlink:href="#path0"></mpath>
  </animateMotion>
</circle><path id="path1" d="M 110.5487533446399 527.1835046085216
c 0 33.873995951307606 -8.288318158298669 9.729764794524526 -18.018082952823196 9.729764794524526
S 74.51258743899352 561.0575005598292 74.51258743899352 527.1835046085216
s 8.288318158298669 -9.729764794524526 18.018082952823196 -9.729764794524526
S 110.5487533446399 493.309508657214 110.5487533446399 527.1835046085216
z" fill="none" stroke="none"></path>
<circle cx="0" cy="0" r="5.822064582399859" fill="#ff708e">
  <animateMotion begin="-2.5215616435563803s" dur="10s" repeatCount="indefinite">
    <mpath xlink:href="#path1"></mpath>
  </animateMotion>
</circle><path id="path2" d="M 947.0088594538462 1165.9202586052768
c 0 33.852660562947094 -8.283097797316842 9.723636544676294 -18.006734341993138 9.723636544676294
S 910.9953907698599 1199.7729191682238 910.9953907698599 1165.9202586052768
s 8.283097797316842 -9.723636544676294 18.006734341993138 -9.723636544676294
S 947.0088594538462 1132.0675980423298 947.0088594538462 1165.9202586052768
z" fill="none" stroke="none"></path>
<circle cx="0" cy="0" r="6.047696459015502" fill="#ff708e">
  <animateMotion begin="-6.970490125488926s" dur="10s" repeatCount="indefinite">
    <mpath xlink:href="#path2"></mpath>
  </animateMotion>
</circle><path id="path3" d="M 322.71621027625844 794.80584265178
c 0 33.328742737641804 -8.15490513793363 9.573149509748177 -17.72805464768181 9.573149509748177
S 287.26010098089483 828.1345853894219 287.26010098089483 794.80584265178
s 8.15490513793363 -9.573149509748177 17.72805464768181 -9.573149509748177
S 322.71621027625844 761.4770999141382 322.71621027625844 794.80584265178
z" fill="none" stroke="none"></path>
<circle cx="0" cy="0" r="6.3152731452729425" fill="#51cacc">
  <animateMotion begin="-9.821496440366369s" dur="10s" repeatCount="indefinite">
    <mpath xlink:href="#path3"></mpath>
  </animateMotion>
</circle><path id="path4" d="M 1032.6633105126666 1115.2979443765892
c 0 35.56243014497938 -8.701445673771548 10.214740573557908 -18.916186247329456 10.214740573557908
S 994.8309380180076 1150.8603745215685 994.8309380180076 1115.2979443765892
s 8.701445673771548 -10.214740573557908 18.916186247329456 -10.214740573557908
S 1032.6633105126666 1079.7355142316098 1032.6633105126666 1115.2979443765892
z" fill="none" stroke="none"></path>
<circle cx="0" cy="0" r="7.261184784509568" fill="#de9dd6">
  <animateMotion begin="-3.5838357107519436s" dur="10s" repeatCount="indefinite">
    <mpath xlink:href="#path4"></mpath>
  </animateMotion>
</circle><path id="path5" d="M 1037.2040025929693 191.5743019756277
c 0 22.98719898267115 -5.624527410653579 6.602706090767246 -12.227233501420825 6.602706090767246
S 1012.7495355901276 214.56150095829884 1012.7495355901276 191.5743019756277
s 5.624527410653579 -6.602706090767246 12.227233501420825 -6.602706090767246
S 1037.2040025929693 168.58710299295655 1037.2040025929693 191.5743019756277
z" fill="none" stroke="none"></path>
<circle cx="0" cy="0" r="5.2360864663392475" fill="#51cacc">
  <animateMotion begin="-8.307683756371727s" dur="10s" repeatCount="indefinite">
    <mpath xlink:href="#path5"></mpath>
  </animateMotion>
</circle><path id="path6" d="M 741.0323594456921 599.6850589337757
c 0 32.66097326428207 -7.991514734877527 9.381343384421445 -17.37285811929897 9.381343384421445
S 706.2866432070942 632.3460321980579 706.2866432070942 599.6850589337757
s 7.991514734877527 -9.381343384421445 17.37285811929897 -9.381343384421445
S 741.0323594456921 567.0240856694936 741.0323594456921 599.6850589337757
z" fill="none" stroke="none"></path>
<circle cx="0" cy="0" r="5.5039798404997935" fill="#9df871">
  <animateMotion begin="-4.437250595341142s" dur="10s" repeatCount="indefinite">
    <mpath xlink:href="#path6"></mpath>
  </animateMotion>
</circle><path id="path7" d="M 1123.1486096261872 703.9204592724426
c 0 36.02245964361387 -8.814006083011904 10.346876706144409 -19.16088278915631 10.346876706144409
S 1084.8268440478744 739.9429189160564 1084.8268440478744 703.9204592724426
s 8.814006083011904 -10.346876706144409 19.16088278915631 -10.346876706144409
S 1123.1486096261872 667.8979996288288 1123.1486096261872 703.9204592724426
z" fill="none" stroke="none"></path>
<circle cx="0" cy="0" r="6.201382307622184" fill="#9df871">
  <animateMotion begin="-7.930945887015255s" dur="10s" repeatCount="indefinite">
    <mpath xlink:href="#path7"></mpath>
  </animateMotion>
</circle><path id="path8" d="M 181.47901015436827 1088.0482728999712
c 0 36.84176779703672 -9.01447509927494 10.582209899148843 -19.596684998423783 10.582209899148843
S 142.28564015752067 1124.8900406970079 142.28564015752067 1088.0482728999712
s 9.01447509927494 -10.582209899148843 19.596684998423783 -10.582209899148843
S 181.47901015436827 1051.2065051029344 181.47901015436827 1088.0482728999712
z" fill="none" stroke="none"></path>
<circle cx="0" cy="0" r="4.2187188601808305" fill="#ff708e">
  <animateMotion begin="-8.021955525413427s" dur="10s" repeatCount="indefinite">
    <mpath xlink:href="#path8"></mpath>
  </animateMotion>
</circle><path id="path9" d="M 664.0336851934808 490.250876406264
c 0 22.968225846397385 -5.6198850475227635 6.597256360135419 -12.217141407658183 6.597256360135419
S 639.5994023781643 513.2191022526614 639.5994023781643 490.250876406264
s 5.6198850475227635 -6.597256360135419 12.217141407658183 -6.597256360135419
S 664.0336851934808 467.2826505598666 664.0336851934808 490.250876406264
z" fill="none" stroke="none"></path>
<circle cx="0" cy="0" r="6.331760172838774" fill="#9df871">
  <animateMotion begin="-0.6057307985004523s" dur="10s" repeatCount="indefinite">
    <mpath xlink:href="#path9"></mpath>
  </animateMotion>
</circle><path id="path10" d="M 294.31194237622896 1010.4938721878411
c 0 28.20909502801446 -6.902225379195027 8.102612401663729 -15.004837780858756 8.102612401663729
S 264.3022668145115 1038.7029672158556 264.3022668145115 1010.4938721878411
s 6.902225379195027 -8.102612401663729 15.004837780858756 -8.102612401663729
S 294.31194237622896 982.2847771598267 294.31194237622896 1010.4938721878411
z" fill="none" stroke="none"></path>
<circle cx="0" cy="0" r="7.737466281980038" fill="#ff708e">
  <animateMotion begin="-4.673197896173374s" dur="10s" repeatCount="indefinite">
    <mpath xlink:href="#path10"></mpath>
  </animateMotion>
</circle><path id="path11" d="M 290.2721149022912 1254.4557570128054
c 0 34.16287101335095 -8.35900035433055 9.81273954638804 -18.17173990071859 9.81273954638804
S 253.92863510085402 1288.6186280261563 253.92863510085402 1254.4557570128054
s 8.35900035433055 -9.81273954638804 18.17173990071859 -9.81273954638804
S 290.2721149022912 1220.2928859994545 290.2721149022912 1254.4557570128054
z" fill="none" stroke="none"></path>
<circle cx="0" cy="0" r="4.905281290101167" fill="#ff708e">
  <animateMotion begin="-4.514515044481559s" dur="10s" repeatCount="indefinite">
    <mpath xlink:href="#path11"></mpath>
  </animateMotion>
</circle><path id="path12" d="M 132.9466546317219 1051.5481594834084
c 0 19.937894465827604 -4.87842098631952 5.726842027418567 -10.605263013738087 5.726842027418567
S 111.73612860424574 1071.486053949236 111.73612860424574 1051.5481594834084
s 4.87842098631952 -5.726842027418567 10.605263013738087 -5.726842027418567
S 132.9466546317219 1031.6102650175808 132.9466546317219 1051.5481594834084
z" fill="none" stroke="none"></path>
<circle cx="0" cy="0" r="4.124677749646862" fill="#e0ff77">
  <animateMotion begin="-9.62598821342079s" dur="10s" repeatCount="indefinite">
    <mpath xlink:href="#path12"></mpath>
  </animateMotion>
</circle><path id="path13" d="M 1239.676124492517 118.69767864332786
c 0 27.786759590811528 -6.798887984985798 7.9813032867224605 -14.780191271708258 7.9813032867224605
S 1210.1157419491005 146.4844382341394 1210.1157419491005 118.69767864332786
s 6.798887984985798 -7.9813032867224605 14.780191271708258 -7.9813032867224605
S 1239.676124492517 90.91091905251633 1239.676124492517 118.69767864332786
z" fill="none" stroke="none"></path>
<circle cx="0" cy="0" r="6.705278965111288" fill="#de9dd6">
  <animateMotion begin="-8.575105941973078s" dur="10s" repeatCount="indefinite">
    <mpath xlink:href="#path13"></mpath>
  </animateMotion>
</circle><path id="path14" d="M 349.21436515825906 607.4269125517076
c 0 36.65252886172795 -8.968171955529177 10.527854034751645 -19.496025990280824 10.527854034751645
S 310.2223131776974 644.0794414134356 310.2223131776974 607.4269125517076
s 8.968171955529177 -10.527854034751645 19.496025990280824 -10.527854034751645
S 349.21436515825906 570.7743836899796 349.21436515825906 607.4269125517076
z" fill="none" stroke="none"></path>
<circle cx="0" cy="0" r="5.715360472518221" fill="#ff708e">
  <animateMotion begin="-9.446395366259882s" dur="10s" repeatCount="indefinite">
    <mpath xlink:href="#path14"></mpath>
  </animateMotion>
</circle><path id="path15" d="M 333.9297658033203 764.4174754550328
c 0 37.259016520393885 -9.116567872011268 10.702057936708883 -19.818625808720153 10.702057936708883
S 294.29251418588007 801.6764919754266 294.29251418588007 764.4174754550328
s 9.116567872011268 -10.702057936708883 19.818625808720153 -10.702057936708883
S 333.9297658033203 727.1584589346389 333.9297658033203 764.4174754550328
z" fill="none" stroke="none"></path>
<circle cx="0" cy="0" r="7.086322668645056" fill="#51cacc">
  <animateMotion begin="-5.702215704563773s" dur="10s" repeatCount="indefinite">
    <mpath xlink:href="#path15"></mpath>
  </animateMotion>
</circle><path id="path16" d="M 567.1269584942527 279.16595205522407
c 0 20.872877151548888 -5.107193345591749 5.995400883955532 -11.10259422954728 5.995400883955532
S 544.921770035158 300.03882920677296 544.921770035158 279.16595205522407
s 5.107193345591749 -5.995400883955532 11.10259422954728 -5.995400883955532
S 567.1269584942527 258.2930749036752 567.1269584942527 279.16595205522407
z" fill="none" stroke="none"></path>
<circle cx="0" cy="0" r="5.990200824367885" fill="#e0ff77">
  <animateMotion begin="-5.23853762522786s" dur="10s" repeatCount="indefinite">
    <mpath xlink:href="#path16"></mpath>
  </animateMotion>
</circle><path id="path17" d="M 243.6278235026829 970.2239012392108
c 0 22.887261142552244 -5.600074534879804 6.574000540945858 -12.17407507582566 6.574000540945858
S 219.27967335103156 993.111162381763 219.27967335103156 970.2239012392108
s 5.600074534879804 -6.574000540945858 12.17407507582566 -6.574000540945858
S 243.6278235026829 947.3366400966586 243.6278235026829 970.2239012392108
z" fill="none" stroke="none"></path>
<circle cx="0" cy="0" r="7.749232519863035" fill="#ff708e">
  <animateMotion begin="-7.396408534627064s" dur="10s" repeatCount="indefinite">
    <mpath xlink:href="#path17"></mpath>
  </animateMotion>
</circle><path id="path18" d="M 498.2211534003165 453.69836552376546
c 0 34.26193823133194 -8.383240205538664 9.841195023893217 -18.224435229431883 9.841195023893217
S 461.7722829414527 487.9603037550974 461.7722829414527 453.69836552376546
s 8.383240205538664 -9.841195023893217 18.224435229431883 -9.841195023893217
S 498.2211534003165 419.4364272924335 498.2211534003165 453.69836552376546
z" fill="none" stroke="none"></path>
<circle cx="0" cy="0" r="5.385676239595421" fill="#e0ff77">
  <animateMotion begin="-9.137474216097896s" dur="10s" repeatCount="indefinite">
    <mpath xlink:href="#path18"></mpath>
  </animateMotion>
</circle><path id="path19" d="M 1176.8229362266725 435.7406204085048
c 0 35.40637986397902 -8.66326315820763 10.169917620504611 -18.83318077871224 10.169917620504611
S 1139.1565746692481 471.1470002724838 1139.1565746692481 435.7406204085048
s 8.66326315820763 -10.169917620504611 18.83318077871224 -10.169917620504611
S 1176.8229362266725 400.3342405445258 1176.8229362266725 435.7406204085048
z" fill="none" stroke="none"></path>
<circle cx="0" cy="0" r="5.322182621060519" fill="#e0ff77">
  <animateMotion begin="-5.75241826085882s" dur="10s" repeatCount="indefinite">
    <mpath xlink:href="#path19"></mpath>
  </animateMotion>
</circle><path id="path20" d="M 1176.4454246611297 52.08180800065287
c 0 28.650335154589573 -7.010188388888937 8.22935158695658 -15.239539975845517 8.22935158695658
S 1145.9663447094388 80.73214315524244 1145.9663447094388 52.08180800065287
s 7.010188388888937 -8.22935158695658 15.239539975845517 -8.22935158695658
S 1176.4454246611297 23.431472846063297 1176.4454246611297 52.08180800065287
z" fill="none" stroke="none"></path>
<circle cx="0" cy="0" r="6.722606728392311" fill="#ff708e">
  <animateMotion begin="-7.959912021235391s" dur="10s" repeatCount="indefinite">
    <mpath xlink:href="#path20"></mpath>
  </animateMotion>
</circle><path id="path21" d="M 46.759230117901524 214.60681670626505
c 0 37.518611400780564 -9.180085768276093 10.77662242362846 -19.956708191904553 10.77662242362846
S 6.845813734092413 252.12542810704562 6.845813734092413 214.60681670626505
s 9.180085768276093 -10.77662242362846 19.956708191904553 -10.77662242362846
S 46.759230117901524 177.08820530548448 46.759230117901524 214.60681670626505
z" fill="none" stroke="none"></path>
<circle cx="0" cy="0" r="4.112537620415115" fill="#51cacc">
  <animateMotion begin="-8.0827210990002s" dur="10s" repeatCount="indefinite">
    <mpath xlink:href="#path21"></mpath>
  </animateMotion>
</circle><path id="path22" d="M 37.848017954327815 1146.944525277006
c 0 22.77566056463696 -5.572768010496278 6.541945055799979 -12.114713066296257 6.541945055799979
S 13.618591821735297 1169.7201858416431 13.618591821735297 1146.944525277006
s 5.572768010496278 -6.541945055799979 12.114713066296257 -6.541945055799979
S 37.848017954327815 1124.168864712369 37.848017954327815 1146.944525277006
z" fill="none" stroke="none"></path>
<circle cx="0" cy="0" r="7.545275746027396" fill="#9df871">
  <animateMotion begin="-5.472090759709509s" dur="10s" repeatCount="indefinite">
    <mpath xlink:href="#path22"></mpath>
  </animateMotion>
</circle><path id="path23" d="M 80.76525126938913 1214.3646003127922
c 0 29.470082755546603 -7.2107649295486365 8.464811004252748 -15.675575933801385 8.464811004252748
S 49.41409940178636 1243.8346830683388 49.41409940178636 1214.3646003127922
s 7.2107649295486365 -8.464811004252748 15.675575933801385 -8.464811004252748
S 80.76525126938913 1184.8945175572455 80.76525126938913 1214.3646003127922
z" fill="none" stroke="none"></path>
<circle cx="0" cy="0" r="4.811837842475131" fill="#51cacc">
  <animateMotion begin="-5.656502773260678s" dur="10s" repeatCount="indefinite">
    <mpath xlink:href="#path23"></mpath>
  </animateMotion>
</circle><path id="path24" d="M 1221.4416895868542 651.89857933658
c 0 21.563457005702016 -5.276165012033471 6.193758927169728 -11.469923939203198 6.193758927169728
S 1198.5018417084477 673.4620363422821 1198.5018417084477 651.89857933658
s 5.276165012033471 -6.193758927169728 11.469923939203198 -6.193758927169728
S 1221.4416895868542 630.335122330878 1221.4416895868542 651.89857933658
z" fill="none" stroke="none"></path>
<circle cx="0" cy="0" r="5.053045736148725" fill="#ff708e">
  <animateMotion begin="-3.7269232581268152s" dur="10s" repeatCount="indefinite">
    <mpath xlink:href="#path24"></mpath>
  </animateMotion>
</circle><path id="path25" d="M 1083.031446593744 533.8836755666734
c 0 23.65229535147145 -5.787263756211099 6.793744409465204 -12.581008165676304 6.793744409465204
S 1057.8694302623912 557.5359709181449 1057.8694302623912 533.8836755666734
s 5.787263756211099 -6.793744409465204 12.581008165676304 -6.793744409465204
S 1083.031446593744 510.23138021520197 1083.031446593744 533.8836755666734
z" fill="none" stroke="none"></path>
<circle cx="0" cy="0" r="7.878268340707572" fill="#ff708e">
  <animateMotion begin="-0.39933649035090557s" dur="10s" repeatCount="indefinite">
    <mpath xlink:href="#path25"></mpath>
  </animateMotion>
</circle><path id="path26" d="M 544.7000220750717 138.05556693648566
c 0 26.484893002329805 -6.480346160144526 7.607362883647923 -14.087709043792449 7.607362883647923
S 516.5246039874869 164.54045993881547 516.5246039874869 138.05556693648566
s 6.480346160144526 -7.607362883647923 14.087709043792449 -7.607362883647923
S 544.7000220750717 111.57067393415585 544.7000220750717 138.05556693648566
z" fill="none" stroke="none"></path>
<circle cx="0" cy="0" r="5.759257275056913" fill="#ff708e">
  <animateMotion begin="-4.919045036260361s" dur="10s" repeatCount="indefinite">
    <mpath xlink:href="#path26"></mpath>
  </animateMotion>
</circle><path id="path27" d="M 1001.9703377449996 752.0833485365183
c 0 25.252882046376016 -6.17889667092179 7.2534873962994935 -13.432384067221284 7.2534873962994935
S 975.105569610557 777.3362305828944 975.105569610557 752.0833485365183
s 6.17889667092179 -7.2534873962994935 13.432384067221284 -7.2534873962994935
S 1001.9703377449996 726.8304664901423 1001.9703377449996 752.0833485365183
z" fill="none" stroke="none"></path>
<circle cx="0" cy="0" r="4.858718238705397" fill="#9df871">
  <animateMotion begin="-4.331801214308468s" dur="10s" repeatCount="indefinite">
    <mpath xlink:href="#path27"></mpath>
  </animateMotion>
</circle><path id="path28" d="M 864.8274754717365 870.1494579431426
c 0 36.51957972413557 -8.935641847394873 10.489666516507025 -19.425308363901898 10.489666516507025
S 825.9768587439328 906.6690376672782 825.9768587439328 870.1494579431426
s 8.935641847394873 -10.489666516507025 19.425308363901898 -10.489666516507025
S 864.8274754717365 833.629878219007 864.8274754717365 870.1494579431426
z" fill="none" stroke="none"></path>
<circle cx="0" cy="0" r="5.663251141751314" fill="#de9dd6">
  <animateMotion begin="-8.996563343347221s" dur="10s" repeatCount="indefinite">
    <mpath xlink:href="#path28"></mpath>
  </animateMotion>
</circle><path id="path29" d="M 114.32868473984571 967.3031851056044
c 0 33.64548558432905 -8.232406047229448 9.664128838051962 -17.89653488528141 9.664128838051962
S 78.53561496928289 1000.9486706899335 78.53561496928289 967.3031851056044
s 8.232406047229448 -9.664128838051962 17.89653488528141 -9.664128838051962
S 114.32868473984571 933.6576995212753 114.32868473984571 967.3031851056044
z" fill="none" stroke="none"></path>
<circle cx="0" cy="0" r="5.886128500304225" fill="#51cacc">
  <animateMotion begin="-4.15695163109878s" dur="10s" repeatCount="indefinite">
    <mpath xlink:href="#path29"></mpath>
  </animateMotion>
</circle></g>
</svg>